<svg aria-hidden="true" style="position: absolute; width: 0; height: 0; overflow: hidden;" version="1.1" xmlns="http://www.w3.org/2000/svg" xmlns:xlink="http://www.w3.org/1999/xlink">
<defs>
<symbol id="icon-stars" viewBox="0 0 160 32">
<path fill="#fff600" style="fill: var(--color1, #fff600)" d="M16 23.027l8.24 4.973-2.187-9.373 7.28-6.307-9.587-0.813-3.747-8.84-3.747 8.84-9.587 0.813 7.28 6.307-2.187 9.373 8.24-4.973z"></path>
<path fill="#fff600" style="fill: var(--color1, #fff600)" d="M48 23.027l8.24 4.973-2.187-9.373 7.28-6.307-9.587-0.813-3.747-8.84-3.747 8.84-9.587 0.813 7.28 6.307-2.187 9.373 8.24-4.973z"></path>
<path fill="#fff600" style="fill: var(--color1, #fff600)" d="M80 23.027l8.24 4.973-2.187-9.373 7.28-6.307-9.587-0.813-3.747-8.84-3.747 8.84-9.587 0.813 7.28 6.307-2.187 9.373 8.24-4.973z"></path>
<path fill="#fff600" style="fill: var(--color1, #fff600)" d="M112 23.027l8.24 4.973-2.187-9.373 7.28-6.307-9.587-0.813-3.747-8.84-3.747 8.84-9.587 0.813 7.28 6.307-2.187 9.373 8.24-4.973z"></path>
<path fill="#fff600" style="fill: var(--color1, #fff600)" d="M144 23.027l8.24 4.973-2.187-9.373 7.28-6.307-9.587-0.813-3.747-8.84-3.747 8.84-9.587 0.813 7.28 6.307-2.187 9.373 8.24-4.973z"></path>
</symbol>
<symbol id="icon-plus" viewBox="0 0 32 32">
<path stroke-linejoin="round" stroke-linecap="round" stroke-miterlimit="4" stroke-width="2.9091" d="M16 2.423v27.152"></path>
<path stroke-linejoin="round" stroke-linecap="round" stroke-miterlimit="4" stroke-width="2.9091" d="M2.426 16h27.151"></path>
</symbol>
<symbol id="icon-googleplay" viewBox="0 0 32 32">
<path fill="#ea4335" style="fill: var(--color3, #ea4335)" d="M15.061 15.268l-13.166 13.794c0.148 0.524 0.414 1.007 0.777 1.413s0.814 0.723 1.319 0.927c0.505 0.204 1.049 0.291 1.592 0.253s1.070-0.2 1.541-0.473l14.814-8.437-6.877-7.476z"></path>
<path fill="#fbbc04" style="fill: var(--color4, #fbbc04)" d="M28.375 12.924l-6.406-3.669-7.211 6.328 7.24 7.142 6.357-3.63c0.563-0.295 1.035-0.738 1.364-1.282s0.503-1.167 0.503-1.803c0-0.636-0.174-1.259-0.503-1.803s-0.801-0.987-1.364-1.282l0.019 0z"></path>
<path fill="#4285f4" style="fill: var(--color5, #4285f4)" d="M1.896 2.888c-0.080 0.294-0.119 0.598-0.118 0.903v24.37c0.001 0.305 0.040 0.608 0.118 0.903l13.617-13.441-13.617-12.734z"></path>
<path fill="#34a853" style="fill: var(--color6, #34a853)" d="M15.16 15.975l6.809-6.72-14.794-8.476c-0.557-0.326-1.19-0.499-1.835-0.5-1.601-0.003-3.008 1.059-3.443 2.6l13.264 13.097z"></path>
</symbol>
<symbol id="icon-right" viewBox="0 0 32 32">
<path stroke-linejoin="miter" stroke-linecap="butt" stroke-miterlimit="4" stroke-width="0.8" d="M31.6 16c0 8.616-6.984 15.6-15.6 15.6s-15.6-6.984-15.6-15.6c0-8.616 6.984-15.6 15.6-15.6s15.6 6.984 15.6 15.6z"></path>
<path stroke-linejoin="miter" stroke-linecap="butt" stroke-miterlimit="4" stroke-width="0.8" d="M21.424 15.899v0.789l-3.602 3.602-0.567-0.559 3.019-3.037h-9.473v-0.8h9.477l-3.036-3.036 0.578-0.563 3.605 3.605z"></path>
</symbol>
<symbol id="icon-left" viewBox="0 0 32 32">
<path stroke-linejoin="miter" stroke-linecap="butt" stroke-miterlimit="4" stroke-width="0.8" d="M0.4 16c0 8.616 6.984 15.6 15.6 15.6s15.6-6.984 15.6-15.6c0-8.616-6.984-15.6-15.6-15.6s-15.6 6.984-15.6 15.6z"></path>
<path stroke-linejoin="miter" stroke-linecap="butt" stroke-miterlimit="4" stroke-width="0.8" d="M10.576 15.899v0.789l3.602 3.602 0.567-0.559-3.019-3.037h9.473v-0.8h-9.477l3.036-3.036-0.578-0.563-3.605 3.605z"></path>
</symbol>
<symbol  id="icon-email" viewBox="0 0 32 32">
<path stroke-linejoin="round" stroke-linecap="round" stroke-miterlimit="10" stroke-width="2.1818" d="M23.273 28.364h-14.545c-4.364 0-7.273-2.182-7.273-7.273v-10.182c0-5.091 2.909-7.273 7.273-7.273h14.545c4.364 0 7.273 2.182 7.273 7.273v10.182c0 5.091-2.909 7.273-7.273 7.273z"></path>
<path stroke-linejoin="round" stroke-linecap="round" stroke-miterlimit="10" stroke-width="2.1818" d="M23.273 11.636l-4.553 3.636c-1.498 1.193-3.956 1.193-5.455 0l-4.538-3.636"></path>
</symbol>
<symbol id="icon-instagram" viewBox="0 0 32 32">
<path opacity="0.8" d="M28.717 10.756c-0.016-1.074-0.215-2.14-0.596-3.145-0.667-1.716-2.024-3.073-3.743-3.737-0.994-0.373-2.044-0.573-3.108-0.596-1.368-0.061-1.801-0.078-5.273-0.078s-3.917 0-5.274 0.078c-1.062 0.023-2.112 0.223-3.106 0.596-1.719 0.664-3.078 2.021-3.743 3.737-0.374 0.992-0.576 2.041-0.596 3.101-0.061 1.367-0.080 1.8-0.080 5.265s0 3.909 0.080 5.265c0.021 1.062 0.222 2.109 0.596 3.104 0.667 1.714 2.024 3.071 3.744 3.735 0.989 0.386 2.040 0.605 3.106 0.639 1.369 0.061 1.803 0.079 5.274 0.079s3.916 0 5.274-0.079c1.062-0.021 2.113-0.221 3.108-0.595 1.719-0.666 3.076-2.022 3.743-3.737 0.374-0.994 0.574-2.041 0.596-3.104 0.061-1.365 0.080-1.798 0.080-5.265-0.003-3.466-0.003-3.906-0.082-5.264zM15.99 22.531c-3.631 0-6.572-2.936-6.572-6.561s2.941-6.561 6.572-6.561c3.628 0 6.572 2.936 6.572 6.561s-2.944 6.561-6.572 6.561zM22.823 10.696c-0.849 0-1.532-0.684-1.532-1.53s0.684-1.53 1.532-1.53c0.846 0 1.531 0.684 1.531 1.53s-0.685 1.53-1.531 1.53z"></path>
<path opacity="0.8" d="M15.992 19.976c2.211 0 4.004-1.793 4.004-4.004s-1.793-4.004-4.004-4.004c-2.211 0-4.004 1.793-4.004 4.004s1.793 4.004 4.004 4.004z"></path>
</symbol>
<symbol id="icon-facebook" viewBox="0 0 32 32">
<path d="M19.52 4.64c0.24 0 0.48 0 0.96 0v3.6c-0.24 0-0.72 0-1.2 0s-0.96 0-1.2 0.24c-0.24 0.24-0.24 0.48-0.24 1.040 0 0.48 0 0.8 0 1.28h2.64v3.040h-2.64v13.2h-4.080v-13.28h-2.16v-3.040h2.16v-1.040c0-1.76 0.24-3.040 0.72-3.6 0.72-1.040 2.16-1.52 4.32-1.52 0.24 0.080 0.48 0.080 0.72 0.080z"></path>
</symbol>
<symbol id="icon-close" viewBox="0 0 32 32">
<path
    stroke-linejoin="round"
    stroke-linecap="round"
    stroke-miterlimit="4"
    stroke-width="2.9091"
    d="M4 4l24 24" />
  <path
    stroke-linejoin="round"
    stroke-linecap="round"
    stroke-miterlimit="4"
    stroke-width="2.9091"
    d="M28 4l-24 24" /></symbol>
<symbol id="icon-burger" viewBox="0 0 32 32">
<path stroke-linejoin="round" stroke-linecap="round" stroke-miterlimit="4" stroke-width="3.5556" d="M1.778 30.222h28.444M1.778 16h28.444M1.778 1.778h28.444"></path>
</symbol>
</defs>
</svg>
